<mxfile host="Electron" agent="Mozilla/5.0 (Windows NT 10.0; Win64; x64) AppleWebKit/537.36 (KHTML, like Gecko) draw.io/27.0.9 Chrome/134.0.6998.205 Electron/35.4.0 Safari/537.36" version="27.0.9">
  <diagram name="PÃ¡gina-1" id="K_SPVwELb6RBCzlSe16Q">
    <mxGraphModel dx="2084" dy="1252" grid="1" gridSize="10" guides="1" tooltips="1" connect="1" arrows="1" fold="1" page="1" pageScale="1" pageWidth="1169" pageHeight="827" math="0" shadow="0">
      <root>
        <mxCell id="0" />
        <mxCell id="1" parent="0" />
        <mxCell id="kh0cykDb67qDTLCyd-Wk-22" value="" style="group" vertex="1" connectable="0" parent="1">
          <mxGeometry x="195" y="184" width="780" height="460" as="geometry" />
        </mxCell>
        <mxCell id="kh0cykDb67qDTLCyd-Wk-1" value="&lt;p style=&quot;margin:0px;margin-top:4px;text-align:center;&quot;&gt;&lt;b&gt;Usuario&lt;/b&gt;&lt;/p&gt;&lt;hr size=&quot;1&quot; style=&quot;border-style:solid;&quot;&gt;&lt;p style=&quot;margin:0px;margin-left:4px;&quot;&gt;- nickname: String&lt;/p&gt;&lt;p style=&quot;margin:0px;margin-left:4px;&quot;&gt;- nombre: String&lt;/p&gt;&lt;p style=&quot;margin:0px;margin-left:4px;&quot;&gt;- apellido: String&lt;/p&gt;&lt;p style=&quot;margin:0px;margin-left:4px;&quot;&gt;- email: String&lt;/p&gt;&lt;p style=&quot;margin:0px;margin-left:4px;&quot;&gt;- fechaNacimiento: Date&lt;/p&gt;" style="verticalAlign=top;align=left;overflow=fill;html=1;whiteSpace=wrap;" vertex="1" parent="kh0cykDb67qDTLCyd-Wk-22">
          <mxGeometry x="120" width="160" height="110" as="geometry" />
        </mxCell>
        <mxCell id="kh0cykDb67qDTLCyd-Wk-15" style="edgeStyle=orthogonalEdgeStyle;rounded=0;orthogonalLoop=1;jettySize=auto;html=1;entryX=0;entryY=0.5;entryDx=0;entryDy=0;endArrow=none;startFill=0;" edge="1" parent="kh0cykDb67qDTLCyd-Wk-22" source="kh0cykDb67qDTLCyd-Wk-2" target="kh0cykDb67qDTLCyd-Wk-13">
          <mxGeometry relative="1" as="geometry">
            <Array as="points">
              <mxPoint x="80" y="415" />
            </Array>
          </mxGeometry>
        </mxCell>
        <mxCell id="kh0cykDb67qDTLCyd-Wk-2" value="&lt;p style=&quot;margin:0px;margin-top:4px;text-align:center;&quot;&gt;&lt;b&gt;Turista&lt;/b&gt;&lt;/p&gt;&lt;hr size=&quot;1&quot; style=&quot;border-style:solid;&quot;&gt;&lt;p style=&quot;margin:0px;margin-left:4px;&quot;&gt;- nacionalidad: String&lt;/p&gt;" style="verticalAlign=top;align=left;overflow=fill;html=1;whiteSpace=wrap;" vertex="1" parent="kh0cykDb67qDTLCyd-Wk-22">
          <mxGeometry y="200" width="160" height="50" as="geometry" />
        </mxCell>
        <mxCell id="kh0cykDb67qDTLCyd-Wk-3" value="&lt;p style=&quot;margin:0px;margin-top:4px;text-align:center;&quot;&gt;&lt;b&gt;Proveedor&lt;/b&gt;&lt;/p&gt;&lt;hr size=&quot;1&quot; style=&quot;border-style:solid;&quot;&gt;&lt;p style=&quot;margin:0px;margin-left:4px;&quot;&gt;- descripcion: String&lt;/p&gt;&lt;p style=&quot;margin:0px;margin-left:4px;&quot;&gt;- sitioWeb: URL&lt;/p&gt;" style="verticalAlign=top;align=left;overflow=fill;html=1;whiteSpace=wrap;" vertex="1" parent="kh0cykDb67qDTLCyd-Wk-22">
          <mxGeometry x="220" y="200" width="160" height="70" as="geometry" />
        </mxCell>
        <mxCell id="kh0cykDb67qDTLCyd-Wk-4" value="" style="endArrow=none;html=1;rounded=0;entryX=0.5;entryY=0;entryDx=0;entryDy=0;" edge="1" parent="kh0cykDb67qDTLCyd-Wk-22" target="kh0cykDb67qDTLCyd-Wk-3">
          <mxGeometry width="50" height="50" relative="1" as="geometry">
            <mxPoint x="80" y="201" as="sourcePoint" />
            <mxPoint x="310" y="170" as="targetPoint" />
            <Array as="points">
              <mxPoint x="80" y="170" />
              <mxPoint x="300" y="170" />
            </Array>
          </mxGeometry>
        </mxCell>
        <mxCell id="kh0cykDb67qDTLCyd-Wk-5" value="" style="endArrow=block;html=1;rounded=0;entryX=0.5;entryY=1;entryDx=0;entryDy=0;endFill=0;" edge="1" parent="kh0cykDb67qDTLCyd-Wk-22" target="kh0cykDb67qDTLCyd-Wk-1">
          <mxGeometry width="50" height="50" relative="1" as="geometry">
            <mxPoint x="200" y="170" as="sourcePoint" />
            <mxPoint x="410" y="150" as="targetPoint" />
          </mxGeometry>
        </mxCell>
        <mxCell id="kh0cykDb67qDTLCyd-Wk-7" style="edgeStyle=orthogonalEdgeStyle;rounded=0;orthogonalLoop=1;jettySize=auto;html=1;entryX=1;entryY=0.5;entryDx=0;entryDy=0;endArrow=none;startFill=0;exitX=0.5;exitY=1;exitDx=0;exitDy=0;" edge="1" parent="kh0cykDb67qDTLCyd-Wk-22" source="kh0cykDb67qDTLCyd-Wk-6" target="kh0cykDb67qDTLCyd-Wk-3">
          <mxGeometry relative="1" as="geometry">
            <Array as="points">
              <mxPoint x="500" y="235" />
            </Array>
          </mxGeometry>
        </mxCell>
        <mxCell id="kh0cykDb67qDTLCyd-Wk-6" value="&lt;p style=&quot;margin:0px;margin-top:4px;text-align:center;&quot;&gt;&lt;b&gt;ActividadTuristica&lt;/b&gt;&lt;/p&gt;&lt;hr size=&quot;1&quot; style=&quot;border-style:solid;&quot;&gt;&lt;p style=&quot;margin:0px;margin-left:4px;&quot;&gt;- nombreActividad: String&lt;/p&gt;&lt;p style=&quot;margin:0px;margin-left:4px;&quot;&gt;- descripcion: String&lt;/p&gt;&lt;p style=&quot;margin:0px;margin-left:4px;&quot;&gt;- duracion: Horas&lt;/p&gt;&lt;p style=&quot;margin:0px;margin-left:4px;&quot;&gt;- costoTurista: float&lt;/p&gt;&lt;p style=&quot;margin:0px;margin-left:4px;&quot;&gt;- ciudad: String&lt;/p&gt;&lt;p style=&quot;margin:0px;margin-left:4px;&quot;&gt;- fechaAlta: Date&lt;/p&gt;" style="verticalAlign=top;align=left;overflow=fill;html=1;whiteSpace=wrap;" vertex="1" parent="kh0cykDb67qDTLCyd-Wk-22">
          <mxGeometry x="420" y="30" width="160" height="120" as="geometry" />
        </mxCell>
        <mxCell id="kh0cykDb67qDTLCyd-Wk-9" value="&lt;p style=&quot;margin:0px;margin-top:4px;text-align:center;&quot;&gt;&lt;b&gt;SalidaTuristica&lt;/b&gt;&lt;/p&gt;&lt;hr size=&quot;1&quot; style=&quot;border-style:solid;&quot;&gt;&lt;p style=&quot;margin:0px;margin-left:4px;&quot;&gt;- nombreSalida: String&lt;/p&gt;&lt;p style=&quot;margin:0px;margin-left:4px;&quot;&gt;- cantidadMaxTuristas: int&lt;/p&gt;&lt;p style=&quot;margin:0px;margin-left:4px;&quot;&gt;- lugarDeSalida: String&lt;/p&gt;&lt;p style=&quot;margin:0px;margin-left:4px;&quot;&gt;- fechaYHora: Date&lt;/p&gt;&lt;p style=&quot;margin:0px;margin-left:4px;&quot;&gt;- fechaAlta: Date&lt;/p&gt;" style="verticalAlign=top;align=left;overflow=fill;html=1;whiteSpace=wrap;" vertex="1" parent="kh0cykDb67qDTLCyd-Wk-22">
          <mxGeometry x="620" y="230" width="160" height="110" as="geometry" />
        </mxCell>
        <mxCell id="kh0cykDb67qDTLCyd-Wk-10" style="edgeStyle=orthogonalEdgeStyle;rounded=0;orthogonalLoop=1;jettySize=auto;html=1;entryX=1.007;entryY=0.457;entryDx=0;entryDy=0;entryPerimeter=0;exitX=0.5;exitY=0;exitDx=0;exitDy=0;" edge="1" parent="kh0cykDb67qDTLCyd-Wk-22" source="kh0cykDb67qDTLCyd-Wk-9" target="kh0cykDb67qDTLCyd-Wk-6">
          <mxGeometry relative="1" as="geometry">
            <Array as="points">
              <mxPoint x="700" y="85" />
            </Array>
          </mxGeometry>
        </mxCell>
        <mxCell id="kh0cykDb67qDTLCyd-Wk-11" value="1" style="text;html=1;align=center;verticalAlign=middle;resizable=0;points=[];autosize=1;strokeColor=none;fillColor=none;" vertex="1" parent="kh0cykDb67qDTLCyd-Wk-22">
          <mxGeometry x="590" y="50" width="30" height="30" as="geometry" />
        </mxCell>
        <mxCell id="kh0cykDb67qDTLCyd-Wk-12" value="*" style="text;html=1;align=center;verticalAlign=middle;resizable=0;points=[];autosize=1;strokeColor=none;fillColor=none;" vertex="1" parent="kh0cykDb67qDTLCyd-Wk-22">
          <mxGeometry x="710" y="190" width="30" height="30" as="geometry" />
        </mxCell>
        <mxCell id="kh0cykDb67qDTLCyd-Wk-14" style="edgeStyle=orthogonalEdgeStyle;rounded=0;orthogonalLoop=1;jettySize=auto;html=1;entryX=0.5;entryY=1;entryDx=0;entryDy=0;endArrow=none;startFill=0;" edge="1" parent="kh0cykDb67qDTLCyd-Wk-22" source="kh0cykDb67qDTLCyd-Wk-13" target="kh0cykDb67qDTLCyd-Wk-9">
          <mxGeometry relative="1" as="geometry" />
        </mxCell>
        <mxCell id="kh0cykDb67qDTLCyd-Wk-13" value="&lt;p style=&quot;margin:0px;margin-top:4px;text-align:center;&quot;&gt;&lt;b&gt;InscripcionSalidaTuristica&lt;/b&gt;&lt;/p&gt;&lt;hr size=&quot;1&quot; style=&quot;border-style:solid;&quot;&gt;&lt;p style=&quot;margin:0px;margin-left:4px;&quot;&gt;- cantidadTuristas: Int&lt;/p&gt;&lt;p style=&quot;margin:0px;margin-left:4px;&quot;&gt;- /costoTotal: float&lt;/p&gt;&lt;p style=&quot;margin:0px;margin-left:4px;&quot;&gt;- fechaInscripcion: Date&lt;/p&gt;" style="verticalAlign=top;align=left;overflow=fill;html=1;whiteSpace=wrap;" vertex="1" parent="kh0cykDb67qDTLCyd-Wk-22">
          <mxGeometry x="330" y="370" width="160" height="90" as="geometry" />
        </mxCell>
        <mxCell id="kh0cykDb67qDTLCyd-Wk-16" value="1" style="text;html=1;align=center;verticalAlign=middle;resizable=0;points=[];autosize=1;strokeColor=none;fillColor=none;" vertex="1" parent="kh0cykDb67qDTLCyd-Wk-22">
          <mxGeometry x="390" y="240" width="30" height="30" as="geometry" />
        </mxCell>
        <mxCell id="kh0cykDb67qDTLCyd-Wk-17" value="*" style="text;html=1;align=center;verticalAlign=middle;resizable=0;points=[];autosize=1;strokeColor=none;fillColor=none;" vertex="1" parent="kh0cykDb67qDTLCyd-Wk-22">
          <mxGeometry x="500" y="150" width="30" height="30" as="geometry" />
        </mxCell>
        <mxCell id="kh0cykDb67qDTLCyd-Wk-18" value="*" style="text;html=1;align=center;verticalAlign=middle;resizable=0;points=[];autosize=1;strokeColor=none;fillColor=none;" vertex="1" parent="kh0cykDb67qDTLCyd-Wk-22">
          <mxGeometry x="300" y="380" width="30" height="30" as="geometry" />
        </mxCell>
        <mxCell id="kh0cykDb67qDTLCyd-Wk-19" value="*" style="text;html=1;align=center;verticalAlign=middle;resizable=0;points=[];autosize=1;strokeColor=none;fillColor=none;" vertex="1" parent="kh0cykDb67qDTLCyd-Wk-22">
          <mxGeometry x="80" y="250" width="30" height="30" as="geometry" />
        </mxCell>
        <mxCell id="kh0cykDb67qDTLCyd-Wk-20" value="*" style="text;html=1;align=center;verticalAlign=middle;resizable=0;points=[];autosize=1;strokeColor=none;fillColor=none;" vertex="1" parent="kh0cykDb67qDTLCyd-Wk-22">
          <mxGeometry x="490" y="410" width="30" height="30" as="geometry" />
        </mxCell>
        <mxCell id="kh0cykDb67qDTLCyd-Wk-21" value="1" style="text;html=1;align=center;verticalAlign=middle;resizable=0;points=[];autosize=1;strokeColor=none;fillColor=none;" vertex="1" parent="kh0cykDb67qDTLCyd-Wk-22">
          <mxGeometry x="700" y="340" width="30" height="30" as="geometry" />
        </mxCell>
      </root>
    </mxGraphModel>
  </diagram>
</mxfile>
